HIERARCHY
ROOT hip
{
	OFFSET 0.000000 0.000000 0.000000 
	CHANNELS 6 Xposition Yposition Zposition Xrotation Zrotation Yrotation
	JOINT abdomen
	{
		OFFSET 0.000000 3.402643 0.000000 
		CHANNELS 3 Xrotation Zrotation Yrotation
		JOINT chest
		{
			OFFSET 0.000000 8.438565 -0.680529 
			CHANNELS 3 Xrotation Zrotation Yrotation
			JOINT neck
			{
				OFFSET 0.000000 10.207942 -0.272212 
				CHANNELS 3 Xrotation Zrotation Yrotation
				JOINT head
				{
					OFFSET 0.000000 3.130431 0.000000 
					CHANNELS 3 Xrotation Zrotation Yrotation
					End Site
					{
						OFFSET 0.000000 3.130435 0.000000 
					}
				}
			}
			JOINT lCollar
			{
				OFFSET 3.470700 6.669187 -0.816635 
				CHANNELS 3 Yrotation Zrotation Xrotation
				JOINT lShldr
				{
					OFFSET 3.198488 0.000000 0.000000 
					CHANNELS 3 Zrotation Yrotation Xrotation
					JOINT lForeArm
					{
						OFFSET 10.139888 0.000000 0.000000 
						CHANNELS 3 Yrotation Zrotation Xrotation
						JOINT lHand
						{
							OFFSET 8.370511 0.000000 0.000000 
							CHANNELS 3 Zrotation Yrotation Xrotation
							End Site
							{
								OFFSET 4.083176 0.000000 0.000000 
							}
						}
					}
				}
			}
			JOINT rCollar
			{
				OFFSET -3.470700 6.669187 -0.816635 
				CHANNELS 3 Yrotation Zrotation Xrotation
				JOINT rShldr
				{
					OFFSET -3.198488 0.000000 0.000000 
					CHANNELS 3 Zrotation Yrotation Xrotation
					JOINT rForeArm
					{
						OFFSET -10.139888 0.000000 0.000000 
						CHANNELS 3 Yrotation Zrotation Xrotation
						JOINT rHand
						{
							OFFSET -8.370511 0.000000 0.000000 
							CHANNELS 3 Zrotation Yrotation Xrotation
							End Site
							{
								OFFSET -4.083176 0.000000 0.000000 
							}
						}
					}
				}
			}
		}
	}
	JOINT lThigh
	{
		OFFSET 5.308129 -1.633274 1.361059 
		CHANNELS 3 Xrotation Zrotation Yrotation
		JOINT lShin
		{
			OFFSET -2.041588 -20.007561 0.000000 
			CHANNELS 3 Xrotation Zrotation Yrotation
			JOINT lFoot
			{
				OFFSET 0.000000 -19.190928 -1.224953 
				CHANNELS 3 Xrotation Yrotation Zrotation
				End Site
				{
					OFFSET 0.000000 -2.449906 4.627600 
				}
			}
		}
	}
	JOINT rThigh
	{
		OFFSET -5.308129 -1.633274 1.361059 
		CHANNELS 3 Xrotation Zrotation Yrotation
		JOINT rShin
		{
			OFFSET 2.041588 -20.007561 0.000000 
			CHANNELS 3 Xrotation Zrotation Yrotation
			JOINT rFoot
			{
				OFFSET 0.000000 -19.190928 -1.224953 
				CHANNELS 3 Xrotation Yrotation Zrotation
				End Site
				{
					OFFSET 0.000000 -2.449906 4.627600 
				}
			}
		}
	}
}
MOTION
Frames: 10
Frame Time: 0.016667
0.052637 43.589588 0.104293 6.276850 5.290540 -4.438240 -17.754999 1.993260 -0.935035 18.993799 1.269060 -0.181098 5.514990 26.406799 -16.565599 -8.603520 0.000000 0.000000 2.000000 -2.000000 0.000000 -83.332603 9.667900 159.031006 45.439899 -0.310777 0.097469 5.516880 -0.771902 -141.662003 -2.000000 2.000000 0.000000 174.289993 156.389008 -3.228440 -64.990799 0.272648 0.123909 6.065830 -2.813410 -91.667198 -11.994685 3.498697 -9.061777 22.051235 3.921344 1.433806 -9.827153 17.040087 4.288218 -24.222046 -2.508803 -3.771494 43.633358 -1.926664 -3.241540 -19.316801 5.891076 2.368772 
0.120214 43.595432 0.055445 6.445000 5.424690 -4.065850 -17.718100 2.179760 -0.992999 18.954599 1.454510 -0.187148 4.584660 26.540100 -16.863800 -8.603520 0.000000 0.000000 2.000000 -2.000000 0.000000 -83.293800 9.580620 159.304993 45.693802 -0.310345 0.097893 5.513250 -0.786213 -141.563995 -2.000000 2.000000 0.000000 175.421005 156.921005 -5.261030 -63.252499 0.276380 0.122098 6.137240 -2.641730 -93.163597 -12.293676 3.407795 -8.984426 21.899336 3.885962 1.447478 -9.616181 16.602583 4.102398 -24.443796 -2.820869 -3.967999 43.672863 -1.925128 -3.249752 -19.322523 5.885067 2.331528 
0.193961 43.629192 0.051137 6.543840 5.491550 -3.657310 -17.748800 2.304200 -1.105760 18.895901 1.561840 -0.230809 4.219250 26.505501 -16.990101 -8.603520 0.000000 0.000000 2.000000 -2.000000 0.000000 -83.245102 9.776230 159.440994 45.918400 -0.309960 0.098267 5.515890 -0.793032 -141.485992 -2.000000 2.000000 0.000000 -2.969160 23.052299 169.520004 -60.869598 0.281403 0.119434 6.273030 -2.255840 -96.591103 -12.372959 3.313730 -8.936679 21.562767 3.821187 1.428351 -9.262246 16.142561 3.962079 -24.421787 -3.111034 -4.253204 43.545170 -1.923279 -3.232869 -19.299614 5.872576 2.289577 
0.267708 43.663071 0.046828 6.642590 5.548670 -3.250580 -17.770000 2.438030 -1.221200 18.837200 1.659410 -0.264630 3.854040 26.470301 -17.120600 -8.603520 0.000000 0.000000 2.000000 -2.000000 0.000000 -83.196503 9.971850 159.578003 46.152802 -0.309558 0.098655 5.508880 -0.799941 -141.417007 -2.000000 2.000000 0.000000 -1.370550 23.171801 164.296005 -58.477100 0.286330 0.116552 6.404960 -1.863260 -100.026001 -12.489878 3.177770 -8.874928 21.299541 3.845294 1.404494 -8.933951 15.729037 3.796097 -24.417522 -3.400091 -4.519589 43.437119 -1.930029 -3.227865 -19.254812 5.860642 2.256916 
0.330816 43.694740 0.047894 6.769910 5.527840 -2.410530 -18.005501 2.551810 -1.474940 18.553699 1.805540 -0.375602 3.912120 26.475901 -17.183201 -8.603520 0.000000 0.000000 2.000000 -2.000000 0.000000 -83.118599 10.177100 159.675003 46.006302 -0.309810 0.098412 5.514200 -0.813601 -141.270004 -2.000000 2.000000 0.000000 0.118733 23.987801 157.569000 -55.469200 0.292347 0.112640 6.555490 -1.230560 -105.394997 -12.649482 3.096094 -9.215084 20.940489 3.793721 1.377961 -8.471492 15.266094 3.602223 -24.348370 -3.660807 -5.001054 43.297356 -1.971504 -3.208232 -19.328831 5.657523 2.142522 
0.393925 43.726543 0.048962 6.887520 5.516790 -1.560560 -18.231199 2.665220 -1.729680 18.270201 1.951570 -0.488018 3.959500 26.481701 -17.248501 -8.603520 0.000000 0.000000 2.000000 -2.000000 0.000000 -83.040604 10.392200 159.761993 45.869598 -0.310044 0.098186 5.515930 -0.819680 -141.134003 -2.000000 2.000000 0.000000 1.508530 24.959299 150.809998 -52.471199 0.298132 0.108432 6.625530 -0.590777 -110.758003 -12.828217 3.012452 -9.553229 20.537258 3.770153 1.366679 -7.994056 14.809206 3.412523 -24.175285 -3.927816 -5.488251 43.063175 -1.963740 -3.211165 -19.395317 5.474606 2.027885 
0.431152 43.769512 0.073273 6.844680 5.197270 -0.753892 -18.361300 2.874210 -1.868340 18.133200 2.048950 -0.535860 3.924580 26.471701 -17.551701 -8.603520 0.000000 0.000000 2.000000 -2.000000 0.000000 -82.923500 10.431500 159.889008 45.879398 -0.310027 0.098202 5.505100 -0.840719 -140.977005 -2.000000 2.000000 0.000000 2.426010 26.293699 142.761002 -49.424301 0.303777 0.103852 6.654120 0.128932 -116.723000 -12.943685 3.198417 -9.939451 20.524040 3.784239 1.349132 -7.817328 14.405115 3.273606 -23.772184 -3.778881 -5.911885 42.698807 -1.990873 -3.181636 -19.526026 5.064878 1.849136 
0.468380 43.812469 0.097583 6.802090 4.877700 0.054132 -18.481701 3.070350 -2.013020 18.006001 2.146310 -0.574036 3.879020 26.465300 -17.873899 -8.603520 0.000000 0.000000 2.000000 -2.000000 0.000000 -82.806503 10.480600 160.005997 45.879398 -0.310027 0.098202 5.500150 -0.853940 -140.811005 -2.000000 2.000000 0.000000 3.135790 27.733999 134.643997 -46.377399 0.309171 0.098978 6.603760 0.847223 -122.690002 -13.064079 3.391219 -10.306580 20.450089 3.806998 1.343865 -7.620141 13.969711 3.119243 -23.380964 -3.627855 -6.315890 42.345684 -1.998096 -3.163700 -19.640451 4.633253 1.678435 
0.505576 43.848690 0.130927 6.771910 4.800420 0.940892 -18.611000 3.196370 -2.094640 17.917700 2.341270 -0.596071 4.056430 26.459499 -18.214701 -8.603520 0.000000 0.000000 2.000000 -2.000000 0.000000 -82.689400 10.490900 160.210999 46.191898 -0.309491 0.098719 5.507590 -0.847398 -140.899002 -2.000000 2.000000 0.000000 3.236880 28.752701 126.355003 -44.141102 0.312961 0.095222 6.521000 1.369050 -127.092003 -13.038979 3.324094 -10.841976 20.213835 3.795015 1.342658 -7.457288 13.677038 2.993176 -23.019617 -3.759080 -6.710916 42.128513 -2.026145 -3.149984 -19.841028 4.282505 1.502149 
0.542774 43.885040 0.164270 6.741750 4.723120 1.837490 -18.740601 3.331410 -2.180560 17.819599 2.526420 -0.628435 4.242840 26.465500 -18.562000 -8.603520 0.000000 0.000000 2.000000 -2.000000 0.000000 -82.572403 10.501100 160.425995 46.494598 -0.308968 0.099218 5.505100 -0.840719 -140.977005 -2.000000 2.000000 0.000000 3.159760 29.769199 117.987999 -41.904701 0.316601 0.091321 6.394220 1.885450 -131.492004 -13.040601 3.223068 -11.373747 19.953262 3.800432 1.316039 -7.242098 13.404113 2.860599 -22.677202 -3.881158 -7.118484 41.891476 -2.042356 -3.112950 -20.028393 3.896258 1.336445 
